
<svg xmlns="http://www.w3.org/2000/svg"
     width="1555.2"
     height="224">
  
<defs>
  <linearGradient id="grad"
    gradientUnits="userSpaceOnUse"
    x1="0"
    y1="0"
    x2="1555.2"
    y2="0">
    <stop offset="0%" stop-color="#FF6188" />
<stop offset="16.666666666666664%" stop-color="#FC9867" />
<stop offset="33.33333333333333%" stop-color="#FFD866" />
<stop offset="50%" stop-color="#A9DC76" />
<stop offset="66.66666666666666%" stop-color="#78DCE8" />
<stop offset="83.33333333333334%" stop-color="#5C7CFA" />
<stop offset="100%" stop-color="#AB9DF2" />
  </linearGradient>
</defs>

  <g font-family="monospace"
     font-size="32"
     text-anchor="start">
    <text x="19.2" y="96" fill="url(#grad)">▄</text>
<text x="38.4" y="96" fill="url(#grad)">▄</text>
<text x="57.599999999999994" y="96" fill="url(#grad)">▄</text>
<text x="115.19999999999999" y="96" fill="url(#grad)">▄</text>
<text x="134.4" y="96" fill="url(#grad)">▄</text>
<text x="172.79999999999998" y="96" fill="url(#grad)">▄</text>
<text x="192" y="96" fill="url(#grad)">▄</text>
<text x="230.39999999999998" y="96" fill="url(#grad)">▄</text>
<text x="249.6" y="96" fill="url(#grad)">▄</text>
<text x="268.8" y="96" fill="url(#grad)">▄</text>
<text x="288" y="96" fill="url(#grad)">▄</text>
<text x="307.2" y="96" fill="url(#grad)">▄</text>
<text x="326.4" y="96" fill="url(#grad)">▄</text>
<text x="364.8" y="96" fill="url(#grad)">▄</text>
<text x="384" y="96" fill="url(#grad)">▄</text>
<text x="403.2" y="96" fill="url(#grad)">▄</text>
<text x="537.6" y="96" fill="url(#grad)">▄</text>
<text x="556.8" y="96" fill="url(#grad)">▄</text>
<text x="595.1999999999999" y="96" fill="url(#grad)">▄</text>
<text x="614.4" y="96" fill="url(#grad)">▄</text>
<text x="652.8" y="96" fill="url(#grad)">▄</text>
<text x="672" y="96" fill="url(#grad)">▄</text>
<text x="710.4" y="96" fill="url(#grad)">▄</text>
<text x="729.6" y="96" fill="url(#grad)">▄</text>
<text x="748.8" y="96" fill="url(#grad)">▄</text>
<text x="768" y="96" fill="url(#grad)">▄</text>
<text x="787.1999999999999" y="96" fill="url(#grad)">▄</text>
<text x="825.6" y="96" fill="url(#grad)">▄</text>
<text x="844.8" y="96" fill="url(#grad)">▄</text>
<text x="921.5999999999999" y="96" fill="url(#grad)">▄</text>
<text x="940.8" y="96" fill="url(#grad)">▄</text>
<text x="1056" y="96" fill="url(#grad)">▄</text>
<text x="1075.2" y="96" fill="url(#grad)">▄</text>
<text x="1152" y="96" fill="url(#grad)">▄</text>
<text x="1171.2" y="96" fill="url(#grad)">▄</text>
<text x="1228.8" y="96" fill="url(#grad)">▄</text>
<text x="1248" y="96" fill="url(#grad)">▄</text>
<text x="1267.2" y="96" fill="url(#grad)">▄</text>
<text x="1324.8" y="96" fill="url(#grad)">▄</text>
<text x="1344" y="96" fill="url(#grad)">▄</text>
<text x="1363.2" y="96" fill="url(#grad)">▄</text>
<text x="1382.3999999999999" y="96" fill="url(#grad)">▄</text>
<text x="1440" y="96" fill="url(#grad)">▄</text>
<text x="1459.2" y="96" fill="url(#grad)">▄</text>
<text x="1478.3999999999999" y="96" fill="url(#grad)">▄</text>
<text x="1497.6" y="96" fill="url(#grad)">▄</text>
<text x="1516.8" y="96" fill="url(#grad)">▄</text>
<text x="0" y="128" fill="url(#grad)">█</text>
<text x="19.2" y="128" fill="url(#grad)">█</text>
<text x="38.4" y="128" fill="url(#grad)">▀</text>
<text x="57.599999999999994" y="128" fill="url(#grad)">█</text>
<text x="76.8" y="128" fill="url(#grad)">█</text>
<text x="115.19999999999999" y="128" fill="url(#grad)">█</text>
<text x="134.4" y="128" fill="url(#grad)">█</text>
<text x="172.79999999999998" y="128" fill="url(#grad)">█</text>
<text x="192" y="128" fill="url(#grad)">█</text>
<text x="268.8" y="128" fill="url(#grad)">█</text>
<text x="288" y="128" fill="url(#grad)">█</text>
<text x="345.59999999999997" y="128" fill="url(#grad)">█</text>
<text x="364.8" y="128" fill="url(#grad)">█</text>
<text x="384" y="128" fill="url(#grad)">▀</text>
<text x="403.2" y="128" fill="url(#grad)">█</text>
<text x="422.4" y="128" fill="url(#grad)">█</text>
<text x="460.79999999999995" y="128" fill="url(#grad)">▄</text>
<text x="480" y="128" fill="url(#grad)">▄</text>
<text x="499.2" y="128" fill="url(#grad)">▄</text>
<text x="537.6" y="128" fill="url(#grad)">█</text>
<text x="556.8" y="128" fill="url(#grad)">█</text>
<text x="576" y="128" fill="url(#grad)">▄</text>
<text x="595.1999999999999" y="128" fill="url(#grad)">█</text>
<text x="614.4" y="128" fill="url(#grad)">█</text>
<text x="652.8" y="128" fill="url(#grad)">█</text>
<text x="672" y="128" fill="url(#grad)">█</text>
<text x="710.4" y="128" fill="url(#grad)">█</text>
<text x="729.6" y="128" fill="url(#grad)">█</text>
<text x="748.8" y="128" fill="url(#grad)">▄</text>
<text x="768" y="128" fill="url(#grad)">▄</text>
<text x="825.6" y="128" fill="url(#grad)">█</text>
<text x="844.8" y="128" fill="url(#grad)">█</text>
<text x="883.1999999999999" y="128" fill="url(#grad)">▄</text>
<text x="921.5999999999999" y="128" fill="url(#grad)">█</text>
<text x="940.8" y="128" fill="url(#grad)">█</text>
<text x="979.1999999999999" y="128" fill="url(#grad)">▄</text>
<text x="998.4" y="128" fill="url(#grad)">▄</text>
<text x="1017.5999999999999" y="128" fill="url(#grad)">▄</text>
<text x="1056" y="128" fill="url(#grad)">█</text>
<text x="1075.2" y="128" fill="url(#grad)">█</text>
<text x="1094.3999999999999" y="128" fill="url(#grad)">▀</text>
<text x="1113.6" y="128" fill="url(#grad)">▄</text>
<text x="1132.8" y="128" fill="url(#grad)">▀</text>
<text x="1152" y="128" fill="url(#grad)">█</text>
<text x="1171.2" y="128" fill="url(#grad)">█</text>
<text x="1209.6" y="128" fill="url(#grad)">█</text>
<text x="1228.8" y="128" fill="url(#grad)">█</text>
<text x="1248" y="128" fill="url(#grad)">▀</text>
<text x="1267.2" y="128" fill="url(#grad)">█</text>
<text x="1286.3999999999999" y="128" fill="url(#grad)">█</text>
<text x="1324.8" y="128" fill="url(#grad)">█</text>
<text x="1344" y="128" fill="url(#grad)">█</text>
<text x="1363.2" y="128" fill="url(#grad)">▀</text>
<text x="1382.3999999999999" y="128" fill="url(#grad)">█</text>
<text x="1401.6" y="128" fill="url(#grad)">█</text>
<text x="1440" y="128" fill="url(#grad)">█</text>
<text x="1459.2" y="128" fill="url(#grad)">█</text>
<text x="1478.3999999999999" y="128" fill="url(#grad)">▄</text>
<text x="1497.6" y="128" fill="url(#grad)">▄</text>
<text x="0" y="160" fill="url(#grad)">█</text>
<text x="19.2" y="160" fill="url(#grad)">█</text>
<text x="38.4" y="160" fill="url(#grad)">▀</text>
<text x="57.599999999999994" y="160" fill="url(#grad)">█</text>
<text x="76.8" y="160" fill="url(#grad)">█</text>
<text x="115.19999999999999" y="160" fill="url(#grad)">▀</text>
<text x="134.4" y="160" fill="url(#grad)">█</text>
<text x="153.6" y="160" fill="url(#grad)">█</text>
<text x="172.79999999999998" y="160" fill="url(#grad)">█</text>
<text x="192" y="160" fill="url(#grad)">▀</text>
<text x="268.8" y="160" fill="url(#grad)">█</text>
<text x="288" y="160" fill="url(#grad)">█</text>
<text x="345.59999999999997" y="160" fill="url(#grad)">▀</text>
<text x="364.8" y="160" fill="url(#grad)">█</text>
<text x="384" y="160" fill="url(#grad)">█</text>
<text x="403.2" y="160" fill="url(#grad)">█</text>
<text x="422.4" y="160" fill="url(#grad)">▀</text>
<text x="556.8" y="160" fill="url(#grad)">▀</text>
<text x="576" y="160" fill="url(#grad)">█</text>
<text x="595.1999999999999" y="160" fill="url(#grad)">▀</text>
<text x="652.8" y="160" fill="url(#grad)">█</text>
<text x="672" y="160" fill="url(#grad)">█</text>
<text x="710.4" y="160" fill="url(#grad)">█</text>
<text x="729.6" y="160" fill="url(#grad)">█</text>
<text x="748.8" y="160" fill="url(#grad)">▄</text>
<text x="768" y="160" fill="url(#grad)">▄</text>
<text x="787.1999999999999" y="160" fill="url(#grad)">▄</text>
<text x="844.8" y="160" fill="url(#grad)">▀</text>
<text x="864" y="160" fill="url(#grad)">█</text>
<text x="883.1999999999999" y="160" fill="url(#grad)">▀</text>
<text x="902.4" y="160" fill="url(#grad)">█</text>
<text x="921.5999999999999" y="160" fill="url(#grad)">▀</text>
<text x="1056" y="160" fill="url(#grad)">█</text>
<text x="1075.2" y="160" fill="url(#grad)">█</text>
<text x="1152" y="160" fill="url(#grad)">█</text>
<text x="1171.2" y="160" fill="url(#grad)">█</text>
<text x="1209.6" y="160" fill="url(#grad)">▀</text>
<text x="1228.8" y="160" fill="url(#grad)">█</text>
<text x="1248" y="160" fill="url(#grad)">█</text>
<text x="1267.2" y="160" fill="url(#grad)">█</text>
<text x="1286.3999999999999" y="160" fill="url(#grad)">▀</text>
<text x="1324.8" y="160" fill="url(#grad)">█</text>
<text x="1344" y="160" fill="url(#grad)">█</text>
<text x="1363.2" y="160" fill="url(#grad)">█</text>
<text x="1382.3999999999999" y="160" fill="url(#grad)">█</text>
<text x="1401.6" y="160" fill="url(#grad)">▀</text>
<text x="1440" y="160" fill="url(#grad)">█</text>
<text x="1459.2" y="160" fill="url(#grad)">█</text>
<text x="1478.3999999999999" y="160" fill="url(#grad)">▄</text>
<text x="1497.6" y="160" fill="url(#grad)">▄</text>
<text x="1516.8" y="160" fill="url(#grad)">▄</text>

  </g>
</svg>
